 <svg
      className="max-w-[90px] sm:max-w-[100px] lg:max-w-none h-auto"
      width="143"
      height="72"
      viewBox="0 0 143 72"
      fill="none"
      xmlns="http://www.w3.org/2000/svg"
    >
      <g id="Group 47479">
        <g id="Group">
          <g id="Group_2">
            <path
              id="Vector"
              d="M72.4833 29.7517L81.876 20.3574L77.8099 16.292L68.4171 25.6863L72.4833 29.7517Z"
              fill="white"
            />
            <path
              id="Vector_2"
              d="M54.5234 15.0754C53.5651 14.1172 53.0368 12.8452 53.0383 11.4896C53.0383 10.1347 53.5651 8.86268 54.5234 7.90366C55.4824 6.94385 56.7567 6.41709 58.1108 6.41709C59.4641 6.41709 60.7377 6.9454 61.6967 7.90366L66.7738 12.9808L71.8525 7.90366C72.8092 6.94385 74.0843 6.41786 75.4384 6.41709C76.7933 6.41709 78.0676 6.9454 79.0251 7.90366C79.823 8.70156 80.3009 9.7241 80.4458 10.8249C82.1276 9.83566 84.0046 9.226 85.9761 9.05635C85.5283 7.09569 84.5476 5.29383 83.092 3.83825C81.0469 1.79237 78.3294 0.666016 75.4392 0.666016C72.5466 0.667565 69.8291 1.79237 67.7863 3.83747L66.7746 4.8484L65.7637 3.83747C63.7193 1.79237 61.0003 0.665241 58.1108 0.666016C58.1108 0.666016 58.1108 0.666016 58.11 0.666016C55.2198 0.666016 52.5023 1.79237 50.458 3.83747C48.4144 5.88102 47.288 8.5993 47.2888 11.4903C47.288 14.3806 48.4136 17.0981 50.458 19.1416L66.7754 35.4591L70.8408 31.3936L54.5234 15.0754Z"
              fill="white"
            />
          </g>
          <path
            id="Vector_3"
            d="M87.1279 50.3706C87.1272 50.3706 87.1279 50.3706 87.1272 50.3706C84.2369 50.3706 81.5194 49.245 79.4743 47.1991L70.6432 38.368L74.7086 34.3018L83.5397 43.1337C84.4987 44.0927 85.7731 44.6203 87.1279 44.6218C87.1279 44.6218 87.1279 44.6218 87.1287 44.6203C88.4828 44.6203 89.7556 44.0927 90.7138 43.1345C91.6729 42.1778 92.2004 40.9042 92.2004 39.5486C92.1996 38.1922 91.6721 36.9194 90.7138 35.9611L85.6367 30.884L90.7146 25.8061C91.6729 24.8479 92.1996 23.5743 92.1996 22.2194C92.2004 20.8661 91.6713 19.591 90.7146 18.6336C89.7564 17.6745 88.4813 17.147 87.1264 17.147C85.7707 17.147 84.4972 17.6745 83.5389 18.6336L79.4735 14.5681C81.5186 12.523 84.2361 11.3975 87.1264 11.3975C90.0166 11.3975 92.7341 12.523 94.7785 14.5681C96.8228 16.6125 97.9491 19.33 97.9491 22.2202C97.9491 25.1113 96.8236 27.8288 94.7777 29.8731L93.7675 30.8848L94.7785 31.8957C96.8228 33.9385 97.9491 36.6575 97.9491 39.5493C97.9491 42.4396 96.8228 45.1563 94.7785 47.2014C92.7349 49.2442 90.0174 50.3706 87.1279 50.3706Z"
            fill="white"
          />
        </g>
        <g id="Group_3">
          <path
            id="Vector_4"
            d="M10.6073 71.7175L10.591 64.7541L7.17557 70.4904H5.96478L2.56635 64.9036V71.7175H0.0463867V60.1123H2.26811L6.61162 67.3236L10.8885 60.1123H13.0932L13.1265 71.7175H10.6073Z"
            fill="white"
          />
          <path
            id="Vector_5"
            d="M24.5659 65.9734C25.1074 66.5644 25.3785 67.2973 25.3785 68.1703C25.3785 68.8443 25.2019 69.4663 24.8479 70.0349C24.4938 70.6043 23.9555 71.0598 23.2312 71.403C22.5068 71.7454 21.6206 71.9173 20.5702 71.9173C19.7522 71.9173 18.9481 71.8097 18.1579 71.5935C17.3678 71.3782 16.6961 71.0714 16.1438 70.6732L17.188 68.6173C17.6304 68.9488 18.1416 69.206 18.7219 69.3881C19.3021 69.5709 19.8962 69.6615 20.5044 69.6615C21.1783 69.6615 21.7089 69.5314 22.0955 69.2719C22.4821 69.0124 22.6757 68.6444 22.6757 68.1695C22.6757 67.219 21.9514 66.7434 20.5044 66.7434H19.2773V64.9694L21.6648 62.2674H16.7248V60.1123H24.8479V61.853L22.2287 64.8369C23.2451 65.0035 24.0244 65.3823 24.5659 65.9734Z"
            fill="white"
          />
          <path
            id="Vector_6"
            d="M38.0443 62.2674V65.3343H43.4157V67.4894H38.0443V71.7175H35.3585V60.1123H44.1284V62.2674H38.0443Z"
            fill="white"
          />
          <path
            id="Vector_7"
            d="M47.6097 60.1123H50.2955V71.7175H47.6097V60.1123Z"
            fill="white"
          />
          <path
            id="Vector_8"
            d="M65.3486 60.1123V71.7175H63.1439L57.358 64.6712V71.7175H54.7056V60.1123H56.9273L62.6969 67.1586V60.1123H65.3486Z"
            fill="white"
          />
          <path
            id="Vector_9"
            d="M77.4015 69.2308H72.0137L70.9858 71.7175H68.2334L73.4058 60.1123H76.0582L81.2477 71.7175H78.4295L77.4015 69.2308ZM76.5556 67.1911L74.715 62.7477L72.8752 67.1911H76.5556Z"
            fill="white"
          />
          <path
            id="Vector_10"
            d="M94.7585 60.1123V71.7175H92.5538L86.7679 64.6712V71.7175H84.1155V60.1123H86.3372L92.1069 67.1586V60.1123H94.7585Z"
            fill="white"
          />
          <path
            id="Vector_11"
            d="M101.514 71.1451C100.558 70.6315 99.807 69.9188 99.2601 69.007C98.7131 68.0952 98.4397 67.0649 98.4397 65.9153C98.4397 64.7657 98.7131 63.7355 99.2601 62.8237C99.807 61.9119 100.558 61.1984 101.514 60.6848C102.47 60.1713 103.545 59.9141 104.739 59.9141C105.745 59.9141 106.654 60.0915 107.467 60.4447C108.279 60.7979 108.961 61.3061 109.514 61.97L107.79 63.5612C107.005 62.6548 106.033 62.2016 104.872 62.2016C104.154 62.2016 103.512 62.3589 102.948 62.6742C102.385 62.9895 101.945 63.4287 101.631 63.9926C101.315 64.5558 101.158 65.1972 101.158 65.9161C101.158 66.6342 101.315 67.2756 101.631 67.8396C101.946 68.4028 102.385 68.8428 102.948 69.1573C103.512 69.4726 104.153 69.6298 104.872 69.6298C106.032 69.6298 107.005 69.1712 107.79 68.2533L109.514 69.8444C108.961 70.5191 108.276 71.0327 107.459 71.3868C106.641 71.74 105.729 71.9174 104.724 71.9174C103.539 71.9166 102.47 71.6594 101.514 71.1451Z"
            fill="white"
          />
          <path
            id="Vector_12"
            d="M112.979 60.1123H115.664V71.7175H112.979V60.1123Z"
            fill="white"
          />
          <path
            id="Vector_13"
            d="M127.716 69.2308H122.329L121.301 71.7175H118.548L123.721 60.1123H126.373L131.562 71.7175H128.744L127.716 69.2308ZM126.871 67.1911L125.031 62.7477L123.19 67.1911H126.871Z"
            fill="white"
          />
          <path
            id="Vector_14"
            d="M134.431 60.1123H137.117V69.5291H142.936V71.7175H134.431V60.1123Z"
            fill="white"
          />
        </g>
      </g>
    </svg>