<svg width="120" height="69" viewBox="0 0 120 69" fill="none" xmlns="http://www.w3.org/2000/svg">
<path d="M1.206 64V51.4H4.446L8.118 58.978L11.754 51.4H14.976V64H12.276V55.954L9.18 62.236H7.02L3.906 55.954V64H1.206ZM22.3275 64V59.68L18.0255 51.4H21.0855L23.9475 57.448H23.4435L26.2875 51.4H29.3115L25.0275 59.68V64H22.3275ZM38.0406 64V51.4H42.9366C43.9566 51.4 44.8026 51.58 45.4746 51.94C46.1586 52.288 46.6626 52.756 46.9866 53.344C47.3226 53.932 47.4906 54.586 47.4906 55.306C47.4906 55.978 47.3286 56.608 47.0046 57.196C46.6926 57.784 46.2006 58.258 45.5286 58.618C44.8566 58.978 43.9866 59.158 42.9186 59.158H40.7406V64H38.0406ZM44.5386 64L42.0006 58.492H44.8986L47.5986 64H44.5386ZM40.7406 57.214H42.7746C43.4466 57.214 43.9386 57.052 44.2506 56.728C44.5746 56.404 44.7366 55.966 44.7366 55.414C44.7366 54.874 44.5746 54.448 44.2506 54.136C43.9386 53.812 43.4466 53.65 42.7746 53.65H40.7406V57.214ZM51.1919 64V51.4H59.6339V53.578H53.8919V56.548H59.0939V58.636H53.8919V61.822H59.6339V64H51.1919ZM63.3939 64V51.4H68.2899C69.3219 51.4 70.1739 51.574 70.8459 51.922C71.5299 52.27 72.0399 52.75 72.3759 53.362C72.7119 53.962 72.8799 54.64 72.8799 55.396C72.8799 56.104 72.7179 56.758 72.3939 57.358C72.0699 57.958 71.5719 58.444 70.8999 58.816C70.2279 59.188 69.3579 59.374 68.2899 59.374H66.0939V64H63.3939ZM66.0939 57.214H68.1099C68.8179 57.214 69.3279 57.052 69.6399 56.728C69.9639 56.392 70.1259 55.948 70.1259 55.396C70.1259 54.832 69.9639 54.394 69.6399 54.082C69.3279 53.758 68.8179 53.596 68.1099 53.596H66.0939V57.214ZM82.1143 64.216C80.8783 64.216 79.7923 63.94 78.8563 63.388C77.9203 62.836 77.1823 62.074 76.6423 61.102C76.1143 60.118 75.8503 58.984 75.8503 57.7C75.8503 56.416 76.1143 55.288 76.6423 54.316C77.1823 53.332 77.9203 52.564 78.8563 52.012C79.7923 51.46 80.8783 51.184 82.1143 51.184C83.3503 51.184 84.4423 51.46 85.3903 52.012C86.3383 52.564 87.0703 53.332 87.5863 54.316C88.1143 55.288 88.3783 56.416 88.3783 57.7C88.3783 58.984 88.1143 60.118 87.5863 61.102C87.0703 62.074 86.3383 62.836 85.3903 63.388C84.4423 63.94 83.3503 64.216 82.1143 64.216ZM82.1143 61.786C82.8463 61.786 83.4703 61.618 83.9863 61.282C84.5143 60.946 84.9223 60.478 85.2103 59.878C85.4983 59.266 85.6423 58.54 85.6423 57.7C85.6423 56.86 85.4983 56.14 85.2103 55.54C84.9223 54.928 84.5143 54.46 83.9863 54.136C83.4703 53.8 82.8463 53.632 82.1143 53.632C81.4063 53.632 80.7883 53.8 80.2603 54.136C79.7323 54.46 79.3243 54.928 79.0363 55.54C78.7483 56.14 78.6043 56.86 78.6043 57.7C78.6043 58.54 78.7483 59.266 79.0363 59.878C79.3243 60.478 79.7323 60.946 80.2603 61.282C80.7883 61.618 81.4063 61.786 82.1143 61.786ZM92.0167 64V51.4H96.9127C97.9327 51.4 98.7787 51.58 99.4507 51.94C100.135 52.288 100.639 52.756 100.963 53.344C101.299 53.932 101.467 54.586 101.467 55.306C101.467 55.978 101.305 56.608 100.981 57.196C100.669 57.784 100.177 58.258 99.5047 58.618C98.8327 58.978 97.9627 59.158 96.8947 59.158H94.7167V64H92.0167ZM98.5147 64L95.9767 58.492H98.8747L101.575 64H98.5147ZM94.7167 57.214H96.7507C97.4227 57.214 97.9147 57.052 98.2267 56.728C98.5507 56.404 98.7127 55.966 98.7127 55.414C98.7127 54.874 98.5507 54.448 98.2267 54.136C97.9147 53.812 97.4227 53.65 96.7507 53.65H94.7167V57.214ZM108.084 64V53.578H104.43V51.4H114.438V53.578H110.784V64H108.084Z" fill="white"/>
<rect x="35" width="50" height="46" rx="2" fill="#29256A"/>
<path d="M79.1803 16.3177C79.1434 19.2078 77.9832 21.9114 75.9114 23.9302L66.9683 32.6479L62.9543 28.531L71.8982 19.8133C72.8694 18.8666 73.4132 17.599 73.432 16.2444L73.4305 16.2436C73.4478 14.8896 72.9365 13.6101 71.9906 12.6398C71.0462 11.6686 69.7794 11.1248 68.4239 11.1075C67.0676 11.091 65.7882 11.6022 64.8177 12.5482L59.6763 17.5601L54.6636 12.4178C53.7177 11.4474 52.4509 10.9045 51.0961 10.8872C49.7429 10.8691 48.4612 11.3819 47.4917 12.3263C46.5204 13.2722 45.9767 14.5404 45.9594 15.8952C45.9421 17.2508 46.4533 18.5309 47.4001 19.5014L43.283 23.5146C41.2642 21.4436 40.1735 18.7119 40.2104 15.8219C40.2472 12.9319 41.4073 10.229 43.4784 8.21084C45.5487 6.1928 48.2803 5.10128 51.1703 5.13816C54.0612 5.17506 56.7641 6.33514 58.7821 8.40697L59.7808 9.43L60.8045 8.43198C62.8733 6.41391 65.6064 5.32241 68.498 5.35932C71.3881 5.3962 74.0902 6.55708 76.109 8.62731C78.1256 10.6968 79.2172 13.4285 79.1803 16.3177Z" fill="white"/>
<rect x="40" y="34" width="39" height="6" fill="white"/>
</svg>
